<?xml version="1.0" encoding="UTF-8"?>
<svg xmlns="http://www.w3.org/2000/svg"
     xmlns:xlink="http://www.w3.org/1999/xlink"
     xmlns:gadfly="http://www.gadflyjl.org/ns"
     version="1.2"
     width="230mm" height="150mm" viewBox="0 0 230 150"
     stroke="none"
     fill="#000000"
     stroke-width="0.3"
     font-size="3.88"
>
<defs>
  <marker id="arrow" markerWidth="15" markerHeight="7" refX="5" refY="3.5" orient="auto" markerUnits="strokeWidth">
    <path d="M0,0 L15,3.5 L0,7 z" stroke="context-stroke" fill="context-stroke"/>
  </marker>
</defs>
<g class="plotroot xscalable yscalable" id="img-8378593e-1">
  <g font-size="3.88" font-family="'PT Sans','Helvetica Neue','Helvetica',sans-serif" fill="#564A55" stroke="#000000" stroke-opacity="0.000" id="img-8378593e-2">
    <g transform="translate(115.94,138.39)">
      <g class="primitive">
        <text text-anchor="middle" dy="0.6em">Time</text>
      </g>
    </g>
  </g>
  <g class="guide xlabels" font-size="2.82" font-family="'PT Sans Caption','Helvetica Neue','Helvetica',sans-serif" fill="#6C606B" id="img-8378593e-3">
    <g transform="translate(21.07,131.72)">
      <g class="primitive">
        <text text-anchor="middle" dy="0.6em">0.0</text>
      </g>
    </g>
    <g transform="translate(68.51,131.72)">
      <g class="primitive">
        <text text-anchor="middle" dy="0.6em">0.5</text>
      </g>
    </g>
    <g transform="translate(115.94,131.72)">
      <g class="primitive">
        <text text-anchor="middle" dy="0.6em">1.0</text>
      </g>
    </g>
    <g transform="translate(163.37,131.72)">
      <g class="primitive">
        <text text-anchor="middle" dy="0.6em">1.5</text>
      </g>
    </g>
    <g transform="translate(210.81,131.72)">
      <g class="primitive">
        <text text-anchor="middle" dy="0.6em">2.0</text>
      </g>
    </g>
  </g>
  <g class="guide colorkey" id="img-8378593e-4">
    <g fill="#4C404B" font-size="2.82" font-family="'PT Sans','Helvetica Neue','Helvetica',sans-serif" id="img-8378593e-5">
      <g transform="translate(216.62,49.72)" id="img-8378593e-6" class="color_AVAL">
        <g class="primitive">
          <text dy="0.35em">AVAL</text>
        </g>
      </g>
      <g transform="translate(216.62,53.35)" id="img-8378593e-7" class="color_AVAR">
        <g class="primitive">
          <text dy="0.35em">AVAR</text>
        </g>
      </g>
      <g transform="translate(216.62,56.98)" id="img-8378593e-8" class="color_AVBL">
        <g class="primitive">
          <text dy="0.35em">AVBL</text>
        </g>
      </g>
      <g transform="translate(216.62,60.6)" id="img-8378593e-9" class="color_AVBR">
        <g class="primitive">
          <text dy="0.35em">AVBR</text>
        </g>
      </g>
      <g transform="translate(216.62,64.23)" id="img-8378593e-10" class="color_AVDL">
        <g class="primitive">
          <text dy="0.35em">AVDL</text>
        </g>
      </g>
      <g transform="translate(216.62,67.86)" id="img-8378593e-11" class="color_AVDR">
        <g class="primitive">
          <text dy="0.35em">AVDR</text>
        </g>
      </g>
      <g transform="translate(216.62,71.48)" id="img-8378593e-12" class="color_AVEL">
        <g class="primitive">
          <text dy="0.35em">AVEL</text>
        </g>
      </g>
      <g transform="translate(216.62,75.11)" id="img-8378593e-13" class="color_AVER">
        <g class="primitive">
          <text dy="0.35em">AVER</text>
        </g>
      </g>
      <g transform="translate(216.62,78.74)" id="img-8378593e-14" class="color_PLML">
        <g class="primitive">
          <text dy="0.35em">PLML</text>
        </g>
      </g>
      <g transform="translate(216.62,82.36)" id="img-8378593e-15" class="color_PLMR">
        <g class="primitive">
          <text dy="0.35em">PLMR</text>
        </g>
      </g>
      <g transform="translate(216.62,85.99)" id="img-8378593e-16" class="color_PVCL">
        <g class="primitive">
          <text dy="0.35em">PVCL</text>
        </g>
      </g>
      <g transform="translate(216.62,89.62)" id="img-8378593e-17" class="color_PVCR">
        <g class="primitive">
          <text dy="0.35em">PVCR</text>
        </g>
      </g>
    </g>
    <g fill-opacity="1" id="img-8378593e-18">
      <g transform="translate(214.72,49.72)" id="img-8378593e-19" stroke="#FFFFFF" class="color_AVAL" fill="#00BFFF">
        <path d="M-0.91,-0.91 L0.91,-0.91 0.91,0.91 -0.91,0.91  z" class="primitive"/>
      </g>
      <g transform="translate(214.72,53.35)" id="img-8378593e-20" stroke="#FFFFFF" class="color_AVAR" fill="#D4CA3A">
        <path d="M-0.91,-0.91 L0.91,-0.91 0.91,0.91 -0.91,0.91  z" class="primitive"/>
      </g>
      <g transform="translate(214.72,56.98)" id="img-8378593e-21" stroke="#FFFFFF" class="color_AVBL" fill="#FF6DAE">
        <path d="M-0.91,-0.91 L0.91,-0.91 0.91,0.91 -0.91,0.91  z" class="primitive"/>
      </g>
      <g transform="translate(214.72,60.6)" id="img-8378593e-22" stroke="#FFFFFF" class="color_AVBR" fill="#00B78D">
        <path d="M-0.91,-0.91 L0.91,-0.91 0.91,0.91 -0.91,0.91  z" class="primitive"/>
      </g>
      <g transform="translate(214.72,64.23)" id="img-8378593e-23" stroke="#FFFFFF" class="color_AVDL" fill="#BEA9FF">
        <path d="M-0.91,-0.91 L0.91,-0.91 0.91,0.91 -0.91,0.91  z" class="primitive"/>
      </g>
      <g transform="translate(214.72,67.86)" id="img-8378593e-24" stroke="#FFFFFF" class="color_AVDR" fill="#FF6765">
        <path d="M-0.91,-0.91 L0.91,-0.91 0.91,0.91 -0.91,0.91  z" class="primitive"/>
      </g>
      <g transform="translate(214.72,71.48)" id="img-8378593e-25" stroke="#FFFFFF" class="color_AVEL" fill="#C6C6C6">
        <path d="M-0.91,-0.91 L0.91,-0.91 0.91,0.91 -0.91,0.91  z" class="primitive"/>
      </g>
      <g transform="translate(214.72,75.11)" id="img-8378593e-26" stroke="#FFFFFF" class="color_AVER" fill="#63DF75">
        <path d="M-0.91,-0.91 L0.91,-0.91 0.91,0.91 -0.91,0.91  z" class="primitive"/>
      </g>
      <g transform="translate(214.72,78.74)" id="img-8378593e-27" stroke="#FFFFFF" class="color_PLML" fill="#00E6D3">
        <path d="M-0.91,-0.91 L0.91,-0.91 0.91,0.91 -0.91,0.91  z" class="primitive"/>
      </g>
      <g transform="translate(214.72,82.36)" id="img-8378593e-28" stroke="#FFFFFF" class="color_PLMR" fill="#E870DD">
        <path d="M-0.91,-0.91 L0.91,-0.91 0.91,0.91 -0.91,0.91  z" class="primitive"/>
      </g>
      <g transform="translate(214.72,85.99)" id="img-8378593e-29" stroke="#FFFFFF" class="color_PVCL" fill="#93A649">
        <path d="M-0.91,-0.91 L0.91,-0.91 0.91,0.91 -0.91,0.91  z" class="primitive"/>
      </g>
      <g transform="translate(214.72,89.62)" id="img-8378593e-30" stroke="#FFFFFF" class="color_PVCR" fill="#FF9A4B">
        <path d="M-0.91,-0.91 L0.91,-0.91 0.91,0.91 -0.91,0.91  z" class="primitive"/>
      </g>
    </g>
    <g fill="#362A35" font-size="3.88" font-family="'PT Sans','Helvetica Neue','Helvetica',sans-serif" stroke="#000000" stroke-opacity="0.000" id="img-8378593e-31">
      <g transform="translate(213.81,45.9)" id="img-8378593e-32">
        <g class="primitive">
          <text dy="-0em">Neuron</text>
        </g>
      </g>
    </g>
  </g>
  <g clip-path="url(#img-8378593e-33)">
    <g id="img-8378593e-34">
      <g pointer-events="visible" stroke-width="0.3" fill="#000000" fill-opacity="0.000" stroke="#000000" stroke-opacity="0.000" class="guide background" id="img-8378593e-35">
        <g transform="translate(115.94,67.86)" id="img-8378593e-36">
          <path d="M-96.87,-62.86 L96.87,-62.86 96.87,62.86 -96.87,62.86  z" class="primitive"/>
        </g>
      </g>
      <g class="guide ygridlines xfixed" stroke-dasharray="0.5,0.5" stroke-width="0.2" stroke="#D0D0E0" id="img-8378593e-37">
        <g transform="translate(115.94,128.72)" id="img-8378593e-38">
          <path fill="none" d="M-96.87,0 L96.87,0 " class="primitive"/>
        </g>
        <g transform="translate(115.94,104.37)" id="img-8378593e-39">
          <path fill="none" d="M-96.87,0 L96.87,0 " class="primitive"/>
        </g>
        <g transform="translate(115.94,80.03)" id="img-8378593e-40">
          <path fill="none" d="M-96.87,0 L96.87,0 " class="primitive"/>
        </g>
        <g transform="translate(115.94,55.69)" id="img-8378593e-41">
          <path fill="none" d="M-96.87,0 L96.87,0 " class="primitive"/>
        </g>
        <g transform="translate(115.94,31.34)" id="img-8378593e-42">
          <path fill="none" d="M-96.87,0 L96.87,0 " class="primitive"/>
        </g>
        <g transform="translate(115.94,7)" id="img-8378593e-43">
          <path fill="none" d="M-96.87,0 L96.87,0 " class="primitive"/>
        </g>
      </g>
      <g class="guide xgridlines yfixed" stroke-dasharray="0.5,0.5" stroke-width="0.2" stroke="#D0D0E0" id="img-8378593e-44">
        <g transform="translate(21.07,67.86)" id="img-8378593e-45">
          <path fill="none" d="M0,-62.86 L0,62.86 " class="primitive"/>
        </g>
        <g transform="translate(68.51,67.86)" id="img-8378593e-46">
          <path fill="none" d="M0,-62.86 L0,62.86 " class="primitive"/>
        </g>
        <g transform="translate(115.94,67.86)" id="img-8378593e-47">
          <path fill="none" d="M0,-62.86 L0,62.86 " class="primitive"/>
        </g>
        <g transform="translate(163.37,67.86)" id="img-8378593e-48">
          <path fill="none" d="M0,-62.86 L0,62.86 " class="primitive"/>
        </g>
        <g transform="translate(210.81,67.86)" id="img-8378593e-49">
          <path fill="none" d="M0,-62.86 L0,62.86 " class="primitive"/>
        </g>
      </g>
      <g class="plotpanel" id="img-8378593e-50">
        <metadata>
          <boundingbox value="19.071666666666687mm 5.0mm 193.73666666666665mm 125.715mm"/>
          <unitbox value="-0.02108185028372657 0.4107957112927741 2.0421637005674533 -25.82159142258555"/>
        </metadata>
        <g stroke-width="0.3" fill="#000000" fill-opacity="0.000" class="geometry" id="img-8378593e-51">
          <g transform="translate(115.94,105.22)" id="img-8378593e-52" stroke-dasharray="none" stroke="#00BFFF" stroke-opacity="1" class="color_AVAL">
            <path fill="none" d="M-94.87,-98.22 L-92.97,-55.89 -91.07,-23.17 -89.18,-5.75 -87.28,2.48 -85.38,6.06 -83.48,7.39 -81.59,7.66 -79.69,7.47 -77.79,7.08 -75.89,6.61 -74,6.14 -72.1,5.68 -70.2,5.25 -68.31,4.85 -66.41,4.48 -64.51,4.14 -62.61,3.83 -60.72,3.55 -58.82,3.3 -56.92,3.07 -55.02,2.86 -53.13,2.67 -51.23,2.5 -49.33,2.34 -47.43,2.2 -45.54,2.07 -43.64,1.96 -41.74,1.85 -39.84,1.76 -37.95,1.67 -36.05,1.59 -34.15,1.52 -32.26,1.46 -30.36,1.4 -28.46,1.35 -26.56,1.3 -24.67,1.26 -22.77,1.22 -20.87,1.18 -18.97,1.15 -17.08,1.12 -15.18,1.1 -13.28,1.07 -11.38,1.05 -9.49,1.03 -7.59,1.01 -5.69,0.99 -3.79,0.98 -1.9,0.97 -0,0.95 1.9,1 3.79,1.02 5.69,1.02 7.59,1.01 9.49,1.01 11.38,1 13.28,1 15.18,0.99 17.08,0.99 18.97,0.99 20.87,0.98 22.77,0.98 24.67,0.98 26.56,0.98 28.46,0.97 30.36,0.97 32.26,0.97 34.15,0.97 36.05,0.97 37.95,0.97 39.84,0.96 41.74,0.96 43.64,0.96 45.54,0.96 47.43,0.96 49.33,0.96 51.23,0.96 53.13,0.96 55.02,0.96 56.92,0.96 58.82,0.96 60.72,0.96 62.61,0.95 64.51,0.95 66.41,0.95 68.31,0.95 70.2,0.95 72.1,0.95 74,0.95 75.89,0.95 77.79,0.95 79.69,0.95 81.59,0.95 83.48,0.95 85.38,0.95 87.28,0.95 89.18,0.95 91.07,0.95 92.97,0.95 94.87,0.95 " class="primitive"/>
          </g>
          <g transform="translate(115.94,110.26)" id="img-8378593e-53" stroke-dasharray="none" stroke="#D4CA3A" stroke-opacity="1" class="color_AVAR">
            <path fill="none" d="M-94.87,-103.26 L-92.97,-59.63 -91.07,-25.88 -89.18,-7.9 -87.28,0.66 -85.38,4.48 -83.48,6 -81.59,6.45 -79.69,6.4 -77.79,6.13 -75.89,5.79 -74,5.41 -72.1,5.05 -70.2,4.7 -68.31,4.38 -66.41,4.08 -64.51,3.81 -62.61,3.56 -60.72,3.34 -58.82,3.13 -56.92,2.95 -55.02,2.78 -53.13,2.63 -51.23,2.49 -49.33,2.37 -47.43,2.26 -45.54,2.16 -43.64,2.07 -41.74,1.99 -39.84,1.91 -37.95,1.85 -36.05,1.79 -34.15,1.73 -32.26,1.69 -30.36,1.64 -28.46,1.6 -26.56,1.57 -24.67,1.54 -22.77,1.51 -20.87,1.48 -18.97,1.46 -17.08,1.44 -15.18,1.42 -13.28,1.4 -11.38,1.38 -9.49,1.37 -7.59,1.36 -5.69,1.35 -3.79,1.33 -1.9,1.33 -0,1.32 1.9,1.36 3.79,1.38 5.69,1.38 7.59,1.38 9.49,1.38 11.38,1.38 13.28,1.37 15.18,1.37 17.08,1.37 18.97,1.37 20.87,1.37 22.77,1.37 24.67,1.37 26.56,1.37 28.46,1.36 30.36,1.36 32.26,1.36 34.15,1.36 36.05,1.36 37.95,1.36 39.84,1.36 41.74,1.36 43.64,1.36 45.54,1.36 47.43,1.36 49.33,1.36 51.23,1.36 53.13,1.36 55.02,1.36 56.92,1.36 58.82,1.36 60.72,1.36 62.61,1.36 64.51,1.36 66.41,1.36 68.31,1.36 70.2,1.36 72.1,1.36 74,1.36 75.89,1.36 77.79,1.36 79.69,1.36 81.59,1.36 83.48,1.36 85.38,1.36 87.28,1.36 89.18,1.36 91.07,1.36 92.97,1.36 94.87,1.36 " class="primitive"/>
          </g>
          <g transform="translate(115.94,109.43)" id="img-8378593e-54" stroke-dasharray="none" stroke="#FF6DAE" stroke-opacity="1" class="color_AVBL">
            <path fill="none" d="M-94.87,-102.43 L-92.97,-57.78 -91.07,-23.82 -89.18,-5.92 -87.28,2.56 -85.38,6.25 -83.48,7.61 -81.59,7.89 -79.69,7.68 -77.79,7.27 -75.89,6.78 -74,6.29 -72.1,5.81 -70.2,5.37 -68.31,4.96 -66.41,4.58 -64.51,4.23 -62.61,3.92 -60.72,3.64 -58.82,3.38 -56.92,3.15 -55.02,2.94 -53.13,2.74 -51.23,2.57 -49.33,2.42 -47.43,2.28 -45.54,2.15 -43.64,2.04 -41.74,1.93 -39.84,1.84 -37.95,1.75 -36.05,1.68 -34.15,1.61 -32.26,1.54 -30.36,1.49 -28.46,1.43 -26.56,1.39 -24.67,1.35 -22.77,1.31 -20.87,1.27 -18.97,1.24 -17.08,1.21 -15.18,1.18 -13.28,1.16 -11.38,1.14 -9.49,1.12 -7.59,1.1 -5.69,1.08 -3.79,1.07 -1.9,1.05 -0,1.04 1.9,1.07 3.79,1.08 5.69,1.07 7.59,1.07 9.49,1.06 11.38,1.06 13.28,1.05 15.18,1.05 17.08,1.04 18.97,1.04 20.87,1.03 22.77,1.03 24.67,1.02 26.56,1.02 28.46,1.02 30.36,1.02 32.26,1.01 34.15,1.01 36.05,1.01 37.95,1.01 39.84,1 41.74,1 43.64,1 45.54,1 47.43,1 49.33,1 51.23,1 53.13,1 55.02,0.99 56.92,0.99 58.82,0.99 60.72,0.99 62.61,0.99 64.51,0.99 66.41,0.99 68.31,0.99 70.2,0.99 72.1,0.99 74,0.99 75.89,0.99 77.79,0.99 79.69,0.99 81.59,0.99 83.48,0.99 85.38,0.99 87.28,0.98 89.18,0.98 91.07,0.98 92.97,0.98 94.87,0.98 " class="primitive"/>
          </g>
          <g transform="translate(115.94,109.28)" id="img-8378593e-55" stroke-dasharray="none" stroke="#00B78D" stroke-opacity="1" class="color_AVBR">
            <path fill="none" d="M-94.87,-102.28 L-92.97,-57.4 -91.07,-23.51 -89.18,-5.68 -87.28,2.73 -85.38,6.36 -83.48,7.67 -81.59,7.9 -79.69,7.64 -77.79,7.19 -75.89,6.68 -74,6.16 -72.1,5.66 -70.2,5.2 -68.31,4.78 -66.41,4.39 -64.51,4.05 -62.61,3.73 -60.72,3.45 -58.82,3.19 -56.92,2.96 -55.02,2.76 -53.13,2.57 -51.23,2.41 -49.33,2.26 -47.43,2.13 -45.54,2.01 -43.64,1.9 -41.74,1.81 -39.84,1.72 -37.95,1.65 -36.05,1.58 -34.15,1.52 -32.26,1.46 -30.36,1.41 -28.46,1.37 -26.56,1.33 -24.67,1.29 -22.77,1.26 -20.87,1.23 -18.97,1.21 -17.08,1.18 -15.18,1.16 -13.28,1.14 -11.38,1.12 -9.49,1.11 -7.59,1.09 -5.69,1.08 -3.79,1.07 -1.9,1.06 -0,1.05 1.9,1.08 3.79,1.1 5.69,1.1 7.59,1.1 9.49,1.09 11.38,1.09 13.28,1.09 15.18,1.08 17.08,1.08 18.97,1.08 20.87,1.07 22.77,1.07 24.67,1.07 26.56,1.07 28.46,1.07 30.36,1.07 32.26,1.06 34.15,1.06 36.05,1.06 37.95,1.06 39.84,1.06 41.74,1.06 43.64,1.06 45.54,1.06 47.43,1.06 49.33,1.06 51.23,1.06 53.13,1.06 55.02,1.06 56.92,1.05 58.82,1.05 60.72,1.05 62.61,1.05 64.51,1.05 66.41,1.05 68.31,1.05 70.2,1.05 72.1,1.05 74,1.05 75.89,1.05 77.79,1.05 79.69,1.05 81.59,1.05 83.48,1.05 85.38,1.05 87.28,1.05 89.18,1.05 91.07,1.05 92.97,1.05 94.87,1.05 " class="primitive"/>
          </g>
          <g transform="translate(115.94,45.94)" id="img-8378593e-56" stroke-dasharray="none" stroke="#BEA9FF" stroke-opacity="1" class="color_AVDL">
            <path fill="none" d="M-94.87,-38.94 L-92.97,-10.73 -91.07,4.11 -89.18,10.51 -87.28,12.65 -85.38,12.84 -83.48,12.21 -81.59,11.29 -79.69,10.3 -77.79,9.34 -75.89,8.44 -74,7.61 -72.1,6.85 -70.2,6.15 -68.31,5.52 -66.41,4.94 -64.51,4.4 -62.61,3.92 -60.72,3.47 -58.82,3.06 -56.92,2.68 -55.02,2.34 -53.13,2.02 -51.23,1.73 -49.33,1.46 -47.43,1.21 -45.54,0.97 -43.64,0.76 -41.74,0.57 -39.84,0.38 -37.95,0.22 -36.05,0.06 -34.15,-0.08 -32.26,-0.22 -30.36,-0.34 -28.46,-0.45 -26.56,-0.56 -24.67,-0.66 -22.77,-0.75 -20.87,-0.83 -18.97,-0.91 -17.08,-0.98 -15.18,-1.05 -13.28,-1.11 -11.38,-1.17 -9.49,-1.22 -7.59,-1.27 -5.69,-1.32 -3.79,-1.36 -1.9,-1.4 -0,-1.44 1.9,-1.45 3.79,-1.46 5.69,-1.49 7.59,-1.51 9.49,-1.53 11.38,-1.55 13.28,-1.57 15.18,-1.59 17.08,-1.6 18.97,-1.62 20.87,-1.63 22.77,-1.64 24.67,-1.65 26.56,-1.66 28.46,-1.67 30.36,-1.68 32.26,-1.69 34.15,-1.7 36.05,-1.71 37.95,-1.71 39.84,-1.72 41.74,-1.73 43.64,-1.73 45.54,-1.74 47.43,-1.74 49.33,-1.75 51.23,-1.75 53.13,-1.75 55.02,-1.76 56.92,-1.76 58.82,-1.76 60.72,-1.77 62.61,-1.77 64.51,-1.77 66.41,-1.77 68.31,-1.78 70.2,-1.78 72.1,-1.78 74,-1.78 75.89,-1.78 77.79,-1.78 79.69,-1.78 81.59,-1.79 83.48,-1.79 85.38,-1.79 87.28,-1.79 89.18,-1.79 91.07,-1.79 92.97,-1.79 94.87,-1.79 " class="primitive"/>
          </g>
          <g transform="translate(115.94,49.48)" id="img-8378593e-57" stroke-dasharray="none" stroke="#FF6765" stroke-opacity="1" class="color_AVDR">
            <path fill="none" d="M-94.87,-42.48 L-92.97,-13.23 -91.07,4.12 -89.18,12.2 -87.28,15.17 -85.38,15.68 -83.48,15.1 -81.59,14.09 -79.69,12.95 -77.79,11.81 -75.89,10.72 -74,9.7 -72.1,8.76 -70.2,7.9 -68.31,7.1 -66.41,6.37 -64.51,5.7 -62.61,5.08 -60.72,4.51 -58.82,3.99 -56.92,3.5 -55.02,3.06 -53.13,2.65 -51.23,2.27 -49.33,1.92 -47.43,1.59 -45.54,1.29 -43.64,1.02 -41.74,0.76 -39.84,0.52 -37.95,0.3 -36.05,0.1 -34.15,-0.09 -32.26,-0.26 -30.36,-0.42 -28.46,-0.57 -26.56,-0.71 -24.67,-0.84 -22.77,-0.96 -20.87,-1.07 -18.97,-1.17 -17.08,-1.27 -15.18,-1.35 -13.28,-1.44 -11.38,-1.51 -9.49,-1.58 -7.59,-1.65 -5.69,-1.71 -3.79,-1.76 -1.9,-1.82 -0,-1.87 1.9,-1.88 3.79,-1.91 5.69,-1.94 7.59,-1.97 9.49,-2 11.38,-2.03 13.28,-2.05 15.18,-2.08 17.08,-2.1 18.97,-2.12 20.87,-2.14 22.77,-2.15 24.67,-2.17 26.56,-2.19 28.46,-2.2 30.36,-2.21 32.26,-2.23 34.15,-2.24 36.05,-2.25 37.95,-2.26 39.84,-2.27 41.74,-2.27 43.64,-2.28 45.54,-2.29 47.43,-2.3 49.33,-2.3 51.23,-2.31 53.13,-2.31 55.02,-2.32 56.92,-2.32 58.82,-2.33 60.72,-2.33 62.61,-2.34 64.51,-2.34 66.41,-2.34 68.31,-2.35 70.2,-2.35 72.1,-2.35 74,-2.35 75.89,-2.36 77.79,-2.36 79.69,-2.36 81.59,-2.36 83.48,-2.36 85.38,-2.36 87.28,-2.37 89.18,-2.37 91.07,-2.37 92.97,-2.37 94.87,-2.37 " class="primitive"/>
          </g>
          <g transform="translate(115.94,67.37)" id="img-8378593e-58" stroke-dasharray="none" stroke="#C6C6C6" stroke-opacity="1" class="color_AVEL">
            <path fill="none" d="M-94.87,-60.37 L-92.97,-28.01 -91.07,-4.92 -89.18,7.6 -87.28,13.31 -85.38,15.38 -83.48,15.66 -81.59,15.11 -79.69,14.21 -77.79,13.19 -75.89,12.16 -74,11.16 -72.1,10.21 -70.2,9.32 -68.31,8.49 -66.41,7.72 -64.51,7 -62.61,6.33 -60.72,5.72 -58.82,5.14 -56.92,4.61 -55.02,4.12 -53.13,3.66 -51.23,3.24 -49.33,2.84 -47.43,2.48 -45.54,2.14 -43.64,1.83 -41.74,1.53 -39.84,1.26 -37.95,1.01 -36.05,0.78 -34.15,0.56 -32.26,0.36 -30.36,0.18 -28.46,0 -26.56,-0.16 -24.67,-0.31 -22.77,-0.45 -20.87,-0.57 -18.97,-0.69 -17.08,-0.81 -15.18,-0.91 -13.28,-1.01 -11.38,-1.09 -9.49,-1.18 -7.59,-1.26 -5.69,-1.33 -3.79,-1.39 -1.9,-1.46 -0,-1.51 1.9,-1.55 3.79,-1.59 5.69,-1.63 7.59,-1.67 9.49,-1.71 11.38,-1.74 13.28,-1.77 15.18,-1.8 17.08,-1.83 18.97,-1.86 20.87,-1.88 22.77,-1.9 24.67,-1.92 26.56,-1.94 28.46,-1.96 30.36,-1.98 32.26,-1.99 34.15,-2.01 36.05,-2.02 37.95,-2.03 39.84,-2.05 41.74,-2.06 43.64,-2.07 45.54,-2.08 47.43,-2.09 49.33,-2.09 51.23,-2.1 53.13,-2.11 55.02,-2.11 56.92,-2.12 58.82,-2.13 60.72,-2.13 62.61,-2.14 64.51,-2.14 66.41,-2.15 68.31,-2.15 70.2,-2.15 72.1,-2.16 74,-2.16 75.89,-2.16 77.79,-2.17 79.69,-2.17 81.59,-2.17 83.48,-2.17 85.38,-2.17 87.28,-2.18 89.18,-2.18 91.07,-2.18 92.97,-2.18 94.87,-2.18 " class="primitive"/>
          </g>
          <g transform="translate(115.94,65.6)" id="img-8378593e-59" stroke-dasharray="none" stroke="#63DF75" stroke-opacity="1" class="color_AVER">
            <path fill="none" d="M-94.87,-58.6 L-92.97,-26.73 -91.07,-3.9 -89.18,8.52 -87.28,14.15 -85.38,16.13 -83.48,16.33 -81.59,15.7 -79.69,14.74 -77.79,13.66 -75.89,12.57 -74,11.52 -72.1,10.53 -70.2,9.6 -68.31,8.74 -66.41,7.93 -64.51,7.19 -62.61,6.49 -60.72,5.85 -58.82,5.26 -56.92,4.7 -55.02,4.19 -53.13,3.72 -51.23,3.28 -49.33,2.87 -47.43,2.49 -45.54,2.14 -43.64,1.81 -41.74,1.51 -39.84,1.22 -37.95,0.96 -36.05,0.72 -34.15,0.5 -32.26,0.29 -30.36,0.09 -28.46,-0.09 -26.56,-0.25 -24.67,-0.41 -22.77,-0.55 -20.87,-0.69 -18.97,-0.81 -17.08,-0.93 -15.18,-1.04 -13.28,-1.14 -11.38,-1.23 -9.49,-1.32 -7.59,-1.4 -5.69,-1.47 -3.79,-1.54 -1.9,-1.61 -0,-1.67 1.9,-1.71 3.79,-1.75 5.69,-1.79 7.59,-1.83 9.49,-1.87 11.38,-1.91 13.28,-1.94 15.18,-1.97 17.08,-2 18.97,-2.03 20.87,-2.06 22.77,-2.08 24.67,-2.1 26.56,-2.12 28.46,-2.14 30.36,-2.16 32.26,-2.18 34.15,-2.19 36.05,-2.2 37.95,-2.22 39.84,-2.23 41.74,-2.24 43.64,-2.25 45.54,-2.26 47.43,-2.27 49.33,-2.28 51.23,-2.29 53.13,-2.3 55.02,-2.3 56.92,-2.31 58.82,-2.31 60.72,-2.32 62.61,-2.33 64.51,-2.33 66.41,-2.33 68.31,-2.34 70.2,-2.34 72.1,-2.35 74,-2.35 75.89,-2.35 77.79,-2.36 79.69,-2.36 81.59,-2.36 83.48,-2.36 85.38,-2.37 87.28,-2.37 89.18,-2.37 91.07,-2.37 92.97,-2.37 94.87,-2.37 " class="primitive"/>
          </g>
          <g transform="translate(115.94,91.31)" id="img-8378593e-60" stroke-dasharray="none" stroke="#00E6D3" stroke-opacity="1" class="color_PLML">
            <path fill="none" d="M-94.87,-84.31 L-92.97,-51.71 -91.07,-22.15 -89.18,-4.62 -87.28,4.12 -85.38,8.05 -83.48,9.57 -81.59,9.94 -79.69,9.77 -77.79,9.35 -75.89,8.82 -74,8.25 -72.1,7.68 -70.2,7.13 -68.31,6.59 -66.41,6.07 -64.51,5.58 -62.61,5.11 -60.72,4.67 -58.82,4.25 -56.92,3.86 -55.02,3.49 -53.13,3.15 -51.23,2.82 -49.33,2.52 -47.43,2.23 -45.54,1.97 -43.64,1.72 -41.74,1.48 -39.84,1.27 -37.95,1.06 -36.05,0.87 -34.15,0.69 -32.26,0.53 -30.36,0.37 -28.46,0.23 -26.56,0.09 -24.67,-0.03 -22.77,-0.15 -20.87,-0.26 -18.97,-0.36 -17.08,-0.46 -15.18,-0.54 -13.28,-0.63 -11.38,-0.7 -9.49,-0.78 -7.59,-0.84 -5.69,-0.91 -3.79,-0.96 -1.9,-1.02 -0,-1.07 1.9,0.85 3.79,0.9 5.69,0.87 7.59,0.84 9.49,0.81 11.38,0.79 13.28,0.76 15.18,0.74 17.08,0.72 18.97,0.7 20.87,0.68 22.77,0.66 24.67,0.64 26.56,0.63 28.46,0.61 30.36,0.6 32.26,0.59 34.15,0.57 36.05,0.56 37.95,0.55 39.84,0.54 41.74,0.53 43.64,0.53 45.54,0.52 47.43,0.51 49.33,0.5 51.23,0.5 53.13,0.49 55.02,0.49 56.92,0.48 58.82,0.48 60.72,0.47 62.61,0.47 64.51,0.47 66.41,0.46 68.31,0.46 70.2,0.46 72.1,0.45 74,0.45 75.89,0.45 77.79,0.45 79.69,0.44 81.59,0.44 83.48,0.44 85.38,0.44 87.28,0.44 89.18,0.44 91.07,0.43 92.97,0.43 94.87,0.43 " class="primitive"/>
          </g>
          <g transform="translate(115.94,72.86)" id="img-8378593e-61" stroke-dasharray="none" stroke="#E870DD" stroke-opacity="1" class="color_PLMR">
            <path fill="none" d="M-94.87,-65.86 L-92.97,-32.89 -91.07,-7.97 -89.18,5.05 -87.28,10.77 -85.38,12.85 -83.48,13.21 -81.59,12.8 -79.69,12.06 -77.79,11.19 -75.89,10.31 -74,9.44 -72.1,8.61 -70.2,7.82 -68.31,7.08 -66.41,6.39 -64.51,5.74 -62.61,5.14 -60.72,4.58 -58.82,4.06 -56.92,3.58 -55.02,3.13 -53.13,2.72 -51.23,2.33 -49.33,1.98 -47.43,1.65 -45.54,1.34 -43.64,1.06 -41.74,0.8 -39.84,0.56 -37.95,0.33 -36.05,0.12 -34.15,-0.07 -32.26,-0.24 -30.36,-0.41 -28.46,-0.56 -26.56,-0.7 -24.67,-0.83 -22.77,-0.95 -20.87,-1.06 -18.97,-1.17 -17.08,-1.26 -15.18,-1.35 -13.28,-1.43 -11.38,-1.51 -9.49,-1.58 -7.59,-1.65 -5.69,-1.71 -3.79,-1.76 -1.9,-1.81 -0,-1.86 1.9,-0.46 3.79,-0.43 5.69,-0.46 7.59,-0.49 9.49,-0.52 11.38,-0.55 13.28,-0.57 15.18,-0.59 17.08,-0.62 18.97,-0.64 20.87,-0.65 22.77,-0.67 24.67,-0.69 26.56,-0.7 28.46,-0.72 30.36,-0.73 32.26,-0.74 34.15,-0.75 36.05,-0.76 37.95,-0.77 39.84,-0.78 41.74,-0.79 43.64,-0.8 45.54,-0.81 47.43,-0.81 49.33,-0.82 51.23,-0.82 53.13,-0.83 55.02,-0.83 56.92,-0.84 58.82,-0.84 60.72,-0.85 62.61,-0.85 64.51,-0.85 66.41,-0.86 68.31,-0.86 70.2,-0.86 72.1,-0.87 74,-0.87 75.89,-0.87 77.79,-0.87 79.69,-0.87 81.59,-0.88 83.48,-0.88 85.38,-0.88 87.28,-0.88 89.18,-0.88 91.07,-0.88 92.97,-0.88 94.87,-0.88 " class="primitive"/>
          </g>
          <g transform="translate(115.94,90.1)" id="img-8378593e-62" stroke-dasharray="none" stroke="#93A649" stroke-opacity="1" class="color_PVCL">
            <path fill="none" d="M-94.87,-83.1 L-92.97,-45.16 -91.07,-16.4 -89.18,-1.06 -87.28,6.14 -85.38,9.19 -83.48,10.24 -81.59,10.34 -79.69,10.01 -77.79,9.5 -75.89,8.91 -74,8.32 -72.1,7.73 -70.2,7.16 -68.31,6.63 -66.41,6.12 -64.51,5.64 -62.61,5.2 -60.72,4.78 -58.82,4.39 -56.92,4.03 -55.02,3.69 -53.13,3.38 -51.23,3.09 -49.33,2.81 -47.43,2.56 -45.54,2.33 -43.64,2.11 -41.74,1.91 -39.84,1.72 -37.95,1.55 -36.05,1.39 -34.15,1.24 -32.26,1.1 -30.36,0.97 -28.46,0.85 -26.56,0.74 -24.67,0.64 -22.77,0.54 -20.87,0.45 -18.97,0.37 -17.08,0.29 -15.18,0.22 -13.28,0.16 -11.38,0.1 -9.49,0.04 -7.59,-0.01 -5.69,-0.06 -3.79,-0.1 -1.9,-0.14 -0,-0.18 1.9,-0 3.79,-0 5.69,-0.02 7.59,-0.04 9.49,-0.07 11.38,-0.09 13.28,-0.11 15.18,-0.12 17.08,-0.14 18.97,-0.15 20.87,-0.17 22.77,-0.18 24.67,-0.19 26.56,-0.2 28.46,-0.22 30.36,-0.23 32.26,-0.23 34.15,-0.24 36.05,-0.25 37.95,-0.26 39.84,-0.26 41.74,-0.27 43.64,-0.28 45.54,-0.28 47.43,-0.29 49.33,-0.29 51.23,-0.3 53.13,-0.3 55.02,-0.3 56.92,-0.31 58.82,-0.31 60.72,-0.31 62.61,-0.32 64.51,-0.32 66.41,-0.32 68.31,-0.32 70.2,-0.32 72.1,-0.33 74,-0.33 75.89,-0.33 77.79,-0.33 79.69,-0.33 81.59,-0.33 83.48,-0.34 85.38,-0.34 87.28,-0.34 89.18,-0.34 91.07,-0.34 92.97,-0.34 94.87,-0.34 " class="primitive"/>
          </g>
          <g transform="translate(115.94,92.48)" id="img-8378593e-63" stroke-dasharray="none" stroke="#FF9A4B" stroke-opacity="1" class="color_PVCR">
            <path fill="none" d="M-94.87,-85.48 L-92.97,-47.04 -91.07,-17.48 -89.18,-1.58 -87.28,5.91 -85.38,9.08 -83.48,10.16 -81.59,10.27 -79.69,9.93 -77.79,9.4 -75.89,8.81 -74,8.2 -72.1,7.61 -70.2,7.04 -68.31,6.5 -66.41,6 -64.51,5.53 -62.61,5.09 -60.72,4.68 -58.82,4.3 -56.92,3.95 -55.02,3.62 -53.13,3.32 -51.23,3.04 -49.33,2.78 -47.43,2.54 -45.54,2.31 -43.64,2.11 -41.74,1.92 -39.84,1.74 -37.95,1.57 -36.05,1.42 -34.15,1.28 -32.26,1.15 -30.36,1.03 -28.46,0.92 -26.56,0.82 -24.67,0.72 -22.77,0.63 -20.87,0.55 -18.97,0.48 -17.08,0.41 -15.18,0.34 -13.28,0.28 -11.38,0.22 -9.49,0.17 -7.59,0.12 -5.69,0.08 -3.79,0.04 -1.9,0 -0,-0.03 1.9,0.09 3.79,0.09 5.69,0.07 7.59,0.05 9.49,0.03 11.38,0.01 13.28,-0 15.18,-0.02 17.08,-0.03 18.97,-0.05 20.87,-0.06 22.77,-0.07 24.67,-0.08 26.56,-0.09 28.46,-0.1 30.36,-0.11 32.26,-0.12 34.15,-0.12 36.05,-0.13 37.95,-0.14 39.84,-0.14 41.74,-0.15 43.64,-0.15 45.54,-0.16 47.43,-0.16 49.33,-0.17 51.23,-0.17 53.13,-0.18 55.02,-0.18 56.92,-0.18 58.82,-0.18 60.72,-0.19 62.61,-0.19 64.51,-0.19 66.41,-0.19 68.31,-0.2 70.2,-0.2 72.1,-0.2 74,-0.2 75.89,-0.2 77.79,-0.2 79.69,-0.21 81.59,-0.21 83.48,-0.21 85.38,-0.21 87.28,-0.21 89.18,-0.21 91.07,-0.21 92.97,-0.21 94.87,-0.21 " class="primitive"/>
          </g>
        </g>
      </g>
    </g>
  </g>
  <g class="guide ylabels" font-size="2.82" font-family="'PT Sans Caption','Helvetica Neue','Helvetica',sans-serif" fill="#6C606B" id="img-8378593e-64">
    <g transform="translate(18.07,128.72)" id="img-8378593e-65">
      <g class="primitive">
        <text text-anchor="end" dy="0.35em">-25</text>
      </g>
    </g>
    <g transform="translate(18.07,104.37)" id="img-8378593e-66">
      <g class="primitive">
        <text text-anchor="end" dy="0.35em">-20</text>
      </g>
    </g>
    <g transform="translate(18.07,80.03)" id="img-8378593e-67">
      <g class="primitive">
        <text text-anchor="end" dy="0.35em">-15</text>
      </g>
    </g>
    <g transform="translate(18.07,55.69)" id="img-8378593e-68">
      <g class="primitive">
        <text text-anchor="end" dy="0.35em">-10</text>
      </g>
    </g>
    <g transform="translate(18.07,31.34)" id="img-8378593e-69">
      <g class="primitive">
        <text text-anchor="end" dy="0.35em">-5</text>
      </g>
    </g>
    <g transform="translate(18.07,7)" id="img-8378593e-70">
      <g class="primitive">
        <text text-anchor="end" dy="0.35em">0</text>
      </g>
    </g>
  </g>
  <g font-size="3.88" font-family="'PT Sans','Helvetica Neue','Helvetica',sans-serif" fill="#564A55" stroke="#000000" stroke-opacity="0.000" id="img-8378593e-71">
    <g transform="translate(8.81,65.86)" id="img-8378593e-72">
      <g class="primitive">
        <text text-anchor="middle" dy="0.35em" transform="rotate(-90,0, 2)">Voltage</text>
      </g>
    </g>
  </g>
</g>
<defs>
  <clipPath id="img-8378593e-33">
    <path d="M19.07,5 L212.81,5 212.81,130.72 19.07,130.72 " />
  </clipPath>
</defs>
</svg>
